<svg width="188" height="56" viewBox="0 0 188 56" fill="none" xmlns="http://www.w3.org/2000/svg">
<path fill-rule="evenodd" clip-rule="evenodd" d="M17.5488 7.80574C13.9725 7.80574 10.7924 9.7652 8.11552 12.1423V0H0.299072V24.7771C0.299072 34.3067 8.01915 42.0268 17.5488 42.0268C25.9005 42.0268 32.8624 36.0972 34.4558 28.2166V41.5878H42.3258V24.7771C42.3258 19.4187 45.41 15.0778 51.5782 15.0336C49.6729 17.8044 48.5576 21.1606 48.5576 24.7771C48.5576 34.2853 56.267 41.9947 65.7752 41.9947C74.7383 41.9947 82.1028 35.144 82.9179 26.3937V26.426C82.9179 35.0241 89.3959 42.0054 98.0047 42.0054C101.388 42.0054 104.194 40.9239 106.346 39.0929V41.6306H114.58V22.4857C114.58 18.4061 117.546 15.0975 121.24 15.0975C124.934 15.0975 127.932 18.4061 127.932 22.4857V41.6306H135.395L135.386 25.4158C135.733 34.6297 143.304 42.2302 152.591 42.2302C160.376 42.2302 166.939 36.9086 169.081 29.7667L161.511 29.7774C160.054 33.3323 156.564 35.8272 152.495 35.8272C147.676 35.8272 143.672 32.3365 142.89 27.7323L169.563 27.7109C169.57 27.667 169.577 27.6231 169.584 27.5791V41.5878H177.454V24.7771C177.454 19.3912 180.57 15.0333 186.802 15.0333L187.54 15.0975V7.55948H186.802C176.925 7.55948 170.483 12.5619 169.671 22.5669C168.596 14.0919 161.358 7.53805 152.591 7.53805C143.297 7.53805 135.722 14.9038 135.385 24.1155L135.384 22.4857C135.384 14.2516 129.335 7.58088 121.882 7.58088C119.037 7.58088 117.163 8.99917 114.919 10.6976C114.807 10.7824 114.694 10.8678 114.58 10.9537V0.417594H106.346V27.1541C106.346 31.3514 102.941 34.7564 98.7435 34.7564C94.5569 34.7564 91.366 31.3514 91.366 27.1541V15.5901H104.161V8.20192H91.366V0.0856628H82.9179V23.1605C82.1028 14.4102 74.7383 7.55948 65.7752 7.55948C60.383 7.55948 55.5694 10.0389 52.4122 13.9197V7.55948H51.6734C41.9593 7.55948 35.5676 12.3987 34.5875 22.0771C33.2892 13.8784 26.1573 7.80574 17.5488 7.80574ZM27.2926 24.7771C27.2926 30.1629 22.9346 34.5208 17.5488 34.5208C12.1629 34.5208 7.805 30.1629 7.805 24.7771C7.805 19.3912 12.1629 15.0333 17.5488 15.0333C22.9346 15.0333 27.2926 19.3912 27.2926 24.7771ZM180.324 38.3862C180.324 37.369 180.741 36.4482 181.405 35.7736C182.069 35.1098 182.99 34.6922 184.007 34.6922C185.024 34.6922 185.945 35.1098 186.62 35.7736C187.283 36.4375 187.701 37.3583 187.701 38.3755C187.701 39.3927 187.283 40.3136 186.62 40.9882C185.956 41.652 185.035 42.0696 184.018 42.0696C183 42.0696 182.08 41.652 181.405 40.9882C180.73 40.335 180.324 39.4142 180.324 38.3862ZM180.977 38.3862C180.977 39.2321 181.319 39.9924 181.865 40.5384C182.412 41.0845 183.172 41.4272 184.007 41.4272C184.842 41.4272 185.602 41.0845 186.148 40.5384C186.695 39.9924 187.037 39.2321 187.037 38.3969C187.037 37.5618 186.695 36.8015 186.148 36.2555C185.602 35.7094 184.842 35.3667 184.007 35.3667C183.172 35.3667 182.412 35.7094 181.865 36.2555C181.319 36.7908 180.977 37.5511 180.977 38.3862ZM114.591 48.644C114.451 48.5048 114.301 48.387 114.152 48.312C113.916 48.1942 113.67 48.13 113.413 48.1407C112.717 48.1407 112.138 48.4298 111.657 49.0187C111.175 49.5969 110.939 50.3036 110.939 51.1174C110.939 51.7705 111.132 52.3487 111.528 52.8413C111.935 53.3338 112.449 53.5801 113.091 53.5801C113.456 53.5801 113.766 53.4944 114.044 53.3231C114.194 53.2268 114.376 53.0554 114.591 52.8306V53.5159L114.633 53.5694L115.522 53.2375C115.853 53.1203 116.086 53.0431 116.216 53.0001L116.216 53L116.217 52.9998C116.288 52.9761 116.328 52.9629 116.336 52.9591V52.7663C116.293 52.777 116.25 52.7878 116.207 52.7878H116.079C115.822 52.7878 115.661 52.7342 115.597 52.6378C115.543 52.5415 115.511 52.3702 115.511 52.1239L115.522 47.509C115.522 47.3965 115.525 47.2841 115.527 47.1717C115.53 47.0593 115.533 46.9468 115.533 46.8344C115.533 46.7208 115.535 46.6072 115.538 46.495L115.538 46.4944V46.4942C115.541 46.3846 115.543 46.2763 115.543 46.1705L115.554 45.5816L115.522 45.5709C115.383 45.6244 115.287 45.6566 115.222 45.678L115.222 45.678C115.145 45.7039 115.059 45.7298 114.966 45.7581L114.965 45.7582L114.964 45.7586C114.903 45.7769 114.84 45.7962 114.773 45.8172C114.732 45.8279 114.691 45.8394 114.65 45.8511L114.567 45.8746L114.567 45.8747L114.567 45.8747L114.567 45.8748L114.566 45.8749C114.469 45.9029 114.369 45.9314 114.269 45.9564L113.809 46.0742V46.2776L113.856 46.2731C113.887 46.2701 113.914 46.2671 113.937 46.2646C113.983 46.2597 114.015 46.2562 114.034 46.2562C114.066 46.2455 114.109 46.2455 114.152 46.2455C114.344 46.2455 114.462 46.2883 114.516 46.374C114.569 46.4596 114.591 46.6203 114.591 46.8451V48.644ZM114.58 52.2095C114.58 52.3595 114.494 52.5308 114.312 52.7021C114.13 52.8841 113.895 52.9698 113.605 52.9591C113.049 52.9591 112.62 52.7235 112.342 52.2524C112.064 51.7812 111.924 51.2459 111.924 50.6356C111.924 50.0145 112.053 49.5006 112.321 49.083C112.577 48.6654 112.952 48.4512 113.423 48.4512C113.67 48.4512 113.927 48.5476 114.184 48.751C114.451 48.9545 114.58 49.2971 114.58 49.7897V52.2095ZM108.562 45.753C108.68 45.6352 108.819 45.5816 108.98 45.5816C109.14 45.5816 109.28 45.6352 109.397 45.753C109.515 45.8707 109.569 46.0099 109.569 46.1706C109.569 46.3312 109.515 46.4704 109.397 46.5881C109.28 46.7059 109.151 46.7595 108.98 46.7595C108.819 46.7595 108.68 46.7059 108.562 46.5881C108.444 46.4704 108.391 46.3312 108.391 46.1706C108.391 46.0099 108.444 45.8707 108.562 45.753ZM107.663 53.3124C108.07 53.2696 108.316 53.2053 108.423 53.109C108.53 53.0019 108.584 52.7342 108.584 52.2952V49.5969C108.584 49.3507 108.562 49.1793 108.53 49.083C108.477 48.9331 108.359 48.8474 108.177 48.8474C108.134 48.8474 108.091 48.8474 108.048 48.8581C108.038 48.8607 108.024 48.8644 108.006 48.8693C107.949 48.8848 107.852 48.9112 107.706 48.9438V48.7832L107.952 48.7082C108.616 48.4941 109.065 48.3335 109.333 48.2264C109.44 48.1836 109.504 48.1621 109.537 48.1621C109.547 48.1836 109.547 48.2157 109.547 48.2478V52.3059C109.547 52.7342 109.601 53.0019 109.697 53.109C109.804 53.2161 110.04 53.291 110.404 53.3231V53.4837H107.663V53.3124ZM69.5335 50.4964L68.1951 47.3056L66.8781 50.4964H69.5335ZM64.5438 53.473V53.2589C64.8436 53.2268 65.0685 53.109 65.2077 52.9163C65.3576 52.7235 65.6146 52.1989 65.9786 51.353L68.3878 45.678H68.6127L71.493 52.2417C71.6857 52.6807 71.8356 52.9484 71.9534 53.0555C72.0712 53.1518 72.2639 53.2268 72.5316 53.2696V53.4838H69.587V53.2696C69.9297 53.2375 70.1438 53.2054 70.2402 53.1625C70.3366 53.1197 70.3901 53.0126 70.3901 52.8413C70.3901 52.7878 70.3687 52.6807 70.3366 52.5415L70.3234 52.4986L70.3234 52.4985L70.3234 52.4985C70.2846 52.3715 70.2432 52.236 70.1759 52.0918L69.6941 50.9782H66.6639L66.5676 51.2223L66.5658 51.227L66.5655 51.2278L66.565 51.229L66.5648 51.2294L66.562 51.2365C66.3225 51.8438 66.1744 52.2192 66.1178 52.3702C66.0643 52.5308 66.0322 52.67 66.0322 52.7664C66.0322 52.9591 66.1071 53.0983 66.2677 53.1732C66.3641 53.2161 66.5461 53.2482 66.8245 53.2696V53.4838H64.5438V53.473ZM75.6688 48.2692V48.6654H74.5124L74.5017 51.9205C74.5017 52.2096 74.5231 52.4237 74.5767 52.5736C74.6623 52.8306 74.8444 52.9591 75.1121 52.9591C75.2513 52.9591 75.369 52.927 75.4654 52.8627C75.5618 52.7985 75.6796 52.6914 75.8081 52.5629L75.958 52.6914L75.8295 52.8627C75.6367 53.1304 75.4226 53.3124 75.2084 53.4195C74.9943 53.5266 74.7801 53.5801 74.5767 53.5801C74.127 53.5801 73.8272 53.3874 73.6773 52.9912C73.5916 52.7771 73.5488 52.4772 73.5488 52.1025V48.6761H72.9277C72.9063 48.6654 72.8956 48.6547 72.8849 48.644C72.8742 48.6333 72.8742 48.6226 72.8742 48.6012C72.8742 48.5583 72.8849 48.5369 72.8956 48.5155C72.917 48.4941 72.9706 48.4405 73.0562 48.3656C73.3132 48.1514 73.5059 47.9801 73.613 47.8409C73.7308 47.7017 73.9985 47.3484 74.4268 46.7809C74.4803 46.7809 74.5017 46.7809 74.5124 46.7916C74.5231 46.8023 74.5339 46.8237 74.5339 46.8773V48.2692H75.6688ZM81.3867 48.2799H79.0096V48.4298C79.2023 48.4512 79.3416 48.5155 79.4379 48.6011C79.545 48.6868 79.6521 48.8688 79.7806 49.1472L81.5901 53.0554C81.6115 53.0876 81.6222 53.1304 81.633 53.1839L81.6395 53.216C81.6477 53.2548 81.6544 53.287 81.6544 53.3124C81.6544 53.4837 81.5366 53.805 81.301 54.2975C81.0654 54.79 80.8513 55.0363 80.6372 55.0363C80.5515 55.0363 80.4123 55.0042 80.2196 54.9292C80.0268 54.8543 79.8769 54.8222 79.7806 54.8222C79.6092 54.8222 79.47 54.865 79.3523 54.9614C79.2452 55.0577 79.1916 55.1862 79.1916 55.3361C79.1916 55.561 79.288 55.7323 79.47 55.8394C79.6521 55.9465 79.8448 56 80.059 56C80.4873 56 80.8513 55.818 81.1297 55.4539C81.4188 55.0899 81.7079 54.5009 82.0184 53.6872L83.7959 48.9759C83.8494 48.8153 83.9136 48.6975 83.9886 48.6118C84.0743 48.5262 84.192 48.4726 84.3419 48.4512V48.2799H82.7893V48.4619L82.9607 48.4726C83.0677 48.4726 83.1534 48.5048 83.2177 48.5476C83.2819 48.5904 83.314 48.6654 83.314 48.7617C83.314 48.7815 83.3059 48.8176 83.2947 48.8674L83.2946 48.8677L83.2945 48.8679L83.2898 48.8889L83.2823 48.9228C83.2787 48.9395 83.2749 48.9572 83.2712 48.9759C83.2498 49.0829 83.2284 49.1471 83.2177 49.1793L83.2177 49.1793L82.1576 52.1346L80.8406 49.2008C80.8074 49.1094 80.7806 49.0438 80.7603 48.994L80.7442 48.9545C80.7228 48.9009 80.7121 48.8474 80.7121 48.7939C80.7121 48.6547 80.7978 48.5583 80.9691 48.5048C81.0547 48.4726 81.1939 48.4512 81.3867 48.4512V48.2799ZM85.6268 48.9545C86.1087 48.4298 86.719 48.1728 87.4685 48.1728C88.218 48.1728 88.8283 48.4191 89.3209 48.9116C89.8134 49.4042 90.0597 50.0573 90.0597 50.8711C90.0597 51.6206 89.8241 52.2738 89.353 52.8306C88.8819 53.3873 88.2608 53.6657 87.5113 53.6657C86.7939 53.6657 86.1729 53.3981 85.6696 52.8734C85.1664 52.338 84.9201 51.6742 84.9201 50.8711C84.9201 50.1002 85.1557 49.4684 85.6268 48.9545ZM86.5369 48.8046C86.1622 49.1472 85.9694 49.7361 85.9694 50.582C85.9694 51.2566 86.1193 51.8776 86.4192 52.4558C86.7297 53.034 87.1473 53.3231 87.6826 53.3231C88.1002 53.3231 88.4322 53.1304 88.657 52.7449C88.8819 52.3594 88.9997 51.8455 88.9997 51.2244C88.9997 50.5713 88.8497 49.961 88.5606 49.3828C88.2715 48.8046 87.854 48.5155 87.2972 48.5155C87.0081 48.5047 86.7511 48.6118 86.5369 48.8046ZM92.2012 51.8562V48.2371H90.5415V48.3977C90.8199 48.4298 90.9912 48.4726 91.0769 48.5369C91.2054 48.6333 91.2697 48.8367 91.2697 49.1365V52.0704C91.2697 52.6164 91.4088 53.0019 91.7086 53.2268C91.9977 53.4623 92.2976 53.5801 92.6295 53.5801C92.9828 53.5801 93.3255 53.4623 93.6467 53.2375C93.8501 53.0983 94.0857 52.8627 94.3427 52.5629V53.473V53.5266C94.3427 53.548 94.3534 53.5587 94.3748 53.5587C94.4702 53.5218 94.5558 53.4884 94.6317 53.4588L94.632 53.4587C94.8202 53.3853 94.9486 53.3353 95.0173 53.3124L95.1392 53.2734C95.3095 53.2189 95.4311 53.18 95.5098 53.1625C95.6062 53.1304 95.7668 53.0876 95.9702 53.034V52.8734C95.6704 52.8841 95.4777 52.8413 95.3813 52.7449C95.285 52.6486 95.2421 52.4665 95.2421 52.2095V48.2371H93.4111V48.4298C93.7431 48.4405 93.9679 48.5048 94.0857 48.5904C94.2035 48.6761 94.257 48.8688 94.257 49.1579V52.2524C94.1071 52.413 93.9679 52.5415 93.8287 52.6378C93.5825 52.8092 93.3362 52.8948 93.0792 52.8948C92.7044 52.8948 92.4475 52.7556 92.3083 52.4665C92.2333 52.3166 92.2012 52.1132 92.2012 51.8562ZM96.2379 53.2803C96.5806 53.2481 96.8161 53.1946 96.9232 53.0982C97.041 53.0019 97.0945 52.8091 97.0945 52.5093V49.961C97.0945 49.5862 97.0624 49.3185 96.9875 49.1686C96.9232 49.008 96.7947 48.9223 96.6127 48.9223C96.5813 48.9223 96.55 48.9281 96.5102 48.9354C96.4957 48.938 96.48 48.9409 96.4628 48.9438L96.2701 48.9759V48.7831C96.3251 48.7639 96.3807 48.7446 96.437 48.7252L96.4373 48.7251C96.5999 48.6689 96.7669 48.6112 96.9339 48.5476C97.1143 48.4874 97.2534 48.4342 97.3455 48.3989L97.4051 48.3763C97.5978 48.3013 97.7905 48.2264 97.9832 48.13C98.0047 48.13 98.0261 48.1407 98.0261 48.1621C98.0368 48.1835 98.0368 48.2156 98.0368 48.2799V49.2114C98.2831 48.8795 98.5079 48.6118 98.7328 48.4298C98.9576 48.2371 99.1932 48.1514 99.4288 48.1514C99.6215 48.1514 99.7714 48.2049 99.8999 48.3227C100.018 48.4405 100.082 48.5797 100.082 48.751C100.082 48.9009 100.039 49.0401 99.9427 49.1365C99.8571 49.2436 99.7393 49.2971 99.6001 49.2971C99.4609 49.2971 99.311 49.2329 99.1611 49.1044C99.0219 48.9759 98.9041 48.9116 98.8184 48.9116C98.6899 48.9116 98.5293 49.0187 98.3366 49.2329C98.1439 49.447 98.0475 49.6612 98.0475 49.886V52.4237C98.0475 52.7449 98.1224 52.9698 98.2724 53.0982C98.4223 53.2267 98.6685 53.2803 99.0219 53.2696V53.4516H96.2379V53.2803ZM103.722 51.6849H103.54V53.5052H103.69C103.701 53.4516 103.733 53.4195 103.765 53.3874C103.797 53.3553 103.84 53.3338 103.883 53.3338C103.926 53.3338 104.097 53.3767 104.386 53.4516C104.675 53.5266 104.932 53.5694 105.157 53.5694C105.693 53.5694 106.132 53.4195 106.464 53.1411C106.795 52.852 106.967 52.4987 106.967 52.0489C106.967 51.4707 106.571 50.9675 105.768 50.5285L105.018 50.1323C104.493 49.8539 104.236 49.5434 104.236 49.2008C104.236 48.9866 104.311 48.7939 104.461 48.6333C104.611 48.4726 104.815 48.387 105.082 48.387C105.521 48.387 105.853 48.5797 106.089 48.9545C106.217 49.1579 106.324 49.447 106.399 49.8111H106.571L106.528 48.2371H106.389C106.367 48.2692 106.346 48.3013 106.314 48.3227C106.282 48.3442 106.228 48.3549 106.164 48.3549C106.132 48.3549 105.992 48.312 105.757 48.2371C105.521 48.1621 105.307 48.1193 105.104 48.1193C104.643 48.1193 104.269 48.2585 103.969 48.5262C103.669 48.7939 103.519 49.1472 103.519 49.5648C103.519 49.9074 103.637 50.1965 103.851 50.4535C104.076 50.6998 104.418 50.9568 104.879 51.2031L105.511 51.5671C105.746 51.7063 105.907 51.8455 106.003 51.9954C106.1 52.1453 106.142 52.2952 106.142 52.4558C106.142 52.7021 106.067 52.9055 105.896 53.0662C105.735 53.2268 105.511 53.3017 105.232 53.3017C104.729 53.3017 104.343 53.0876 104.076 52.67C103.926 52.4451 103.808 52.1132 103.722 51.6849ZM120.48 48.7189C120.876 49.083 121.079 49.6076 121.079 50.2822H117.492C117.535 51.1602 117.728 51.792 118.081 52.1881C118.434 52.5843 118.863 52.7878 119.355 52.7878C119.752 52.7878 120.083 52.6807 120.351 52.4772C120.619 52.2738 120.876 51.974 121.101 51.5992L121.293 51.6635C121.143 52.1453 120.854 52.5843 120.426 52.9912C120.008 53.3981 119.484 53.6015 118.873 53.6015C118.167 53.6015 117.621 53.3338 117.225 52.7985C116.839 52.2631 116.646 51.6528 116.646 50.9461C116.646 50.1858 116.871 49.5327 117.321 48.9866C117.771 48.4405 118.349 48.1621 119.077 48.1621C119.623 48.1728 120.083 48.3549 120.48 48.7189ZM117.781 49.1472C117.664 49.3507 117.578 49.6076 117.524 49.9182H119.912C119.869 49.5434 119.794 49.265 119.698 49.0723C119.516 48.7403 119.205 48.5797 118.766 48.5797C118.327 48.5797 118.006 48.7725 117.781 49.1472ZM122.343 52.9591C122.343 53.1411 122.396 53.291 122.525 53.4195C122.642 53.5373 122.803 53.6015 122.985 53.6015C123.167 53.6015 123.317 53.548 123.435 53.4195C123.553 53.291 123.617 53.1411 123.617 52.9591C123.617 52.7877 123.563 52.6378 123.435 52.5093C123.317 52.3916 123.156 52.3273 122.985 52.3273C122.803 52.3273 122.653 52.3809 122.525 52.5093C122.407 52.6271 122.343 52.777 122.343 52.9591ZM65.7752 34.5209C71.161 34.5209 75.519 30.1629 75.519 24.7771C75.519 19.3912 71.161 15.0333 65.7752 15.0333C60.3893 15.0333 56.0314 19.3912 56.0314 24.7771C56.0314 30.1629 60.4 34.5209 65.7752 34.5209ZM152.495 14.3801C156.821 14.3801 160.483 17.1855 161.757 21.083H143.233C144.507 17.1962 148.169 14.3801 152.495 14.3801ZM184.746 36.1698H182.347V40.4742H183.236V38.7717H184.275C184.585 38.7717 184.799 38.9109 184.81 39.2C184.799 39.5105 184.799 39.8532 184.81 40.0673C184.821 40.2172 184.853 40.3457 184.928 40.4742H185.881V40.3136C185.795 40.26 185.72 40.2065 185.72 39.9602C185.717 39.8895 185.713 39.7802 185.709 39.659C185.701 39.4132 185.692 39.1185 185.677 38.9966C185.631 38.6531 185.415 38.5269 185.261 38.4366C185.238 38.4228 185.215 38.4098 185.195 38.3969C185.485 38.2363 185.677 38.0971 185.784 37.7224C185.891 37.3476 185.806 37.0478 185.742 36.8551C185.613 36.3839 185.174 36.1912 184.746 36.1698ZM184.446 38.0436H183.236V36.9193H184.435C184.831 36.9193 184.971 37.0906 184.971 37.4012C185.024 37.8295 184.649 38.0436 184.446 38.0436Z" fill="white"/>
</svg>
