<?xml version="1.0" encoding="UTF-8"?>
<!DOCTYPE svg PUBLIC "-//W3C//DTD SVG 1.1//EN" "http://www.w3.org/Graphics/SVG/1.1/DTD/svg11.dtd">
<!-- Creator: CorelDRAW -->
<svg xmlns="http://www.w3.org/2000/svg" xml:space="preserve" width="100%" height="100%" version="1.1" shape-rendering="geometricPrecision" text-rendering="geometricPrecision" image-rendering="optimizeQuality" fill-rule="evenodd" clip-rule="evenodd"
viewBox="0 0 29.11196 10.93988"
 xmlns:xlink="http://www.w3.org/1999/xlink"
 xmlns:xodm="http://www.corel.com/coreldraw/odm/2003">
 <g id="Layer_x0020_1">
  <metadata id="CorelCorpID_0Corel-Layer"/>
  <g id="_1730394458352">
   <path fill="#0D2EA0" d="M2.68246 5.34005c0.83662,0 1.51487,-0.67502 1.51487,-1.50754 0,-0.83266 -0.67825,-1.50761 -1.51487,-1.50761 -0.83666,0 -1.51497,0.67495 -1.51497,1.50761 0,0.83252 0.67831,1.50754 1.51497,1.50754zm-1.46655 -3.46199c0.41574,-0.36796 0.91096,-0.67154 1.46655,-0.67154 1.48143,0 2.68245,1.15175 2.68245,2.62599 0,1.47421 -1.20102,2.66928 -2.68245,2.66928 -1.48151,0 -2.68245,-1.19507 -2.68245,-2.66928l0 -3.83251 1.2159 0 0 1.87806z"/>
   <path fill="#0D2EA0" d="M10.18091 5.34005c0.83662,0 1.51493,-0.67502 1.51493,-1.50754 0,-0.83266 -0.67831,-1.50761 -1.51493,-1.50761 -0.83665,0 -1.51494,0.67495 -1.51494,1.50761 0,0.83252 0.67829,1.50754 1.51494,1.50754zm-2.67666 -1.50754c0,-1.47103 1.19841,-2.66373 2.67666,-2.66373 1.47832,0 2.67674,1.1927 2.67674,2.66373 0,1.47106 -1.19842,2.66343 -2.67674,2.66343 -1.47825,0 -2.67666,-1.19237 -2.67666,-2.66343z"/>
   <path fill="#0D2EA0" d="M5.31072 3.83249c0,-1.77666 1.03172,-2.66373 2.67678,-2.66373l0.11478 0 0 1.16628 -0.11478 -0.01016c-0.96917,0 -1.45375,0.67499 -1.45375,1.50761l0 2.60138 -1.22436 0 0.00133 -2.60138z"/>
   <path fill="#0D2EA0" d="M17.76865 1.69414c0.37209,-0.28063 0.67102,-0.5212 1.1354,-0.5212 1.15931,0 2.09904,1.03258 2.09904,2.30594l0.00182 2.96143 -1.16063 0 0 -2.96232c0,-0.63119 -0.46563,-1.14298 -1.04029,-1.14298 -0.57455,0 -1.03572,0.51179 -1.03572,1.14298l0 2.96232 -1.28011 0 0 -0.39324c-0.3352,0.28329 -0.77098,0.44991 -1.29681,0.44991 -1.33794,0 -2.34512,-1.07939 -2.34512,-2.41073l0 -4.07358 1.31347 0 0 1.25629 1.98946 0 0 1.14219 -1.98946 0 0 1.7893c0,0.64933 0.49533,1.17549 1.14777,1.17549 0.65241,0 1.18117,-0.52616 1.18117,-1.17549l0 -4.13698 1.28001 0 0 1.63067z"/>
   <path fill="#0D2EA0" d="M25.10372 3.26054c-0.19851,-0.60224 -0.76804,-1.03713 -1.43964,-1.03713 -0.67174,0 -1.24137,0.43512 -1.43999,1.0375l2.87963 -0.00037zm-2.93305 1.02939c0.12152,0.71151 0.74385,1.25307 1.49341,1.25307 0.63303,0 1.17548,-0.38651 1.4019,-0.93518l1.17641 -0.0013c-0.33209,1.10492 -1.35389,1.92881 -2.56301,1.92881 -1.47822,0 -2.67657,-1.23175 -2.67657,-2.70285 0,-1.47102 1.19835,-2.66372 2.67657,-2.66372 1.47831,0 2.6768,1.1927 2.6768,2.66372 0,0.15517 -0.01341,0.30773 -0.03898,0.45646l-4.14653 0.00099z"/>
   <path fill="#0D2EA0" d="M26.32065 3.83249c0,-1.77666 1.03151,-2.66373 2.67653,-2.66373l0.11478 0 0 1.16628 -0.11478 -0.01016c-0.96906,0 -1.45368,0.67499 -1.45368,1.50761l0 2.60138 -1.22426 0 0.00141 -2.60138z"/>
   <path fill="#0D2EA0" d="M6.63725 10.06081c-0.02378,-0.13073 -0.03171,-0.29414 -0.03171,-0.46094l0 -0.72016c0,-0.38544 -0.14384,-0.78665 -0.73503,-0.78665 -0.24349,0 -0.47566,0.06762 -0.63535,0.17018l0.08041 0.23103c0.13477,-0.0879 0.32278,-0.14313 0.50285,-0.14313 0.39526,0 0.43942,0.28627 0.43942,0.44517l0 0.03945c-0.74747,-0.00339 -1.16312,0.25132 -1.16312,0.71565 0,0.27837 0.20046,0.55335 0.59232,0.55335 0.27521,0 0.48247,-0.13523 0.59119,-0.28625l0.01132 0 0.02832 0.2423 0.31938 0zm-0.37147 -0.64803c0,0.03607 -0.00794,0.07551 -0.02039,0.11158 -0.05549,0.16228 -0.21518,0.32119 -0.46661,0.32119 -0.18007,0 -0.33184,-0.10705 -0.33184,-0.33359 0,-0.37304 0.4349,-0.44066 0.81884,-0.43277l0 0.33359z"/>
   <path fill="#0D2EA0" d="M7.21626 7.67494l0 0.46208 -0.29898 0 0 0.26597 0.29898 0 0 1.04924c0,0.22653 0.03624,0.39783 0.13591,0.50152 0.08381,0.09467 0.21632,0.14651 0.3794,0.14651 0.13591,0 0.2435,-0.01916 0.31145,-0.04734l-0.01585 -0.26258c-0.04417,0.01239 -0.11213,0.02366 -0.20386,0.02366 -0.19593,0 -0.26389,-0.13524 -0.26389,-0.37304l0 -1.03797 0.50399 0 0 -0.26597 -0.50399 0 0 -0.55337 -0.34316 0.09129zm1.79478 0.46208l0.71464 1.77278c0.01585,0.04395 0.02377,0.071 0.02377,0.09128 0,0.02029 -0.01132,0.04734 -0.02718,0.0834 -0.08041,0.1792 -0.20045,0.31444 -0.29559,0.38995 -0.10419,0.08791 -0.21971,0.14312 -0.30805,0.1713l0.08834 0.29415c0.0872,-0.01577 0.25935,-0.07551 0.4315,-0.22652 0.23897,-0.20737 0.41111,-0.54548 0.66254,-1.20478l0.52776 -1.37156 -0.37146 0 -0.38394 1.12813c-0.04757,0.13975 -0.08721,0.28626 -0.12345,0.40234l-0.00793 0c-0.03171,-0.11608 -0.0804,-0.2671 -0.12458,-0.39445l-0.42357 -1.13602 -0.3828 0z"/>
   <path fill="#0D2EA0" d="M11.90819 8.09306c-0.5357,0 -0.95927,0.37754 -0.95927,1.02107 0,0.60858 0.40319,0.99063 0.92756,0.99063 0.4666,0 0.96266,-0.30992 0.96266,-1.02219 0,-0.5883 -0.376,-0.98951 -0.93095,-0.98951zm-0.00793 0.26259c0.41564,0 0.57873,0.41248 0.57873,0.73932 0,0.43277 -0.25142,0.74721 -0.58666,0.74721 -0.34429,0 -0.58779,-0.31782 -0.58779,-0.73932 0,-0.36628 0.18008,-0.74721 0.59572,-0.74721zm2.98014 -0.21863l-0.35109 0 0 1.17997c0,0.06424 -0.01246,0.12735 -0.03171,0.17919 -0.06456,0.15553 -0.22764,0.31782 -0.46434,0.31782 -0.31938,0 -0.4315,-0.24568 -0.4315,-0.61196l0 -1.06502 -0.3511 0 0 1.12474c0,0.67621 0.36355,0.843 0.66708,0.843 0.34316,0 0.54701,-0.20286 0.63989,-0.35838l0.00792 0 0.01926 0.31443 0.31145 0c-0.01133,-0.15101 -0.01586,-0.3257 -0.01586,-0.52518l0 -1.39861zm0.56441 1.92379l0.34657 0 0 -1.02558c0,-0.05972 0.00906,-0.11495 0.01699,-0.16341 0.04756,-0.26259 0.2231,-0.44855 0.47113,-0.44855 0.04757,0 0.08382,0.00338 0.12006,0.01128l0 -0.33023c-0.03285,-0.00788 -0.06003,-0.01126 -0.1008,-0.01126 -0.23557,0 -0.44736,0.16228 -0.53456,0.4215l-0.01586 0 -0.01246 -0.37754 -0.30805 0c0.01245,0.17806 0.01698,0.37304 0.01698,0.59956l0 1.32423zm1.97825 -0.09128c0.13591,0.07889 0.3307,0.13073 0.54249,0.13073 0.45981,0 0.7237,-0.2378 0.7237,-0.5759 0,-0.28626 -0.17215,-0.45306 -0.50738,-0.58041 -0.25143,-0.0958 -0.36808,-0.16679 -0.36808,-0.32684 0,-0.14312 0.11665,-0.26146 0.32391,-0.26146 0.18007,0 0.31938,0.06311 0.39525,0.11045l0.08835 -0.25357c-0.10759,-0.06425 -0.27974,-0.11947 -0.47568,-0.11947 -0.41564,0 -0.66706,0.2547 -0.66706,0.56463 0,0.22991 0.16422,0.4215 0.51191,0.54435 0.25935,0.09579 0.35901,0.18707 0.35901,0.35388 0,0.15891 -0.12004,0.28626 -0.376,0.28626 -0.17555,0 -0.35902,-0.07213 -0.46321,-0.13975l-0.08721 0.2671zm2.04919 0.09128l0 -1.92379 -0.35109 0 0 1.92379 0.35109 0zm-0.17555 -2.6834c-0.12797,0 -0.21971,0.09467 -0.21971,0.21864 0,0.11946 0.08721,0.21413 0.21178,0.21413 0.13931,0 0.22765,-0.09467 0.22312,-0.21413 0,-0.12397 -0.08381,-0.21864 -0.21519,-0.21864zm2.05826 -0.13975l0 1.14955 -0.00794 0c-0.08833,-0.15553 -0.28766,-0.29415 -0.58325,-0.29415 -0.47228,0 -0.87093,0.39333 -0.86754,1.03347 0,0.58491 0.36015,0.97823 0.82676,0.97823 0.31599,0 0.55155,-0.1634 0.65915,-0.37754l0.00792 0 0.01699 0.33359 0.31484 0c-0.01132,-0.13073 -0.01585,-0.3257 -0.01585,-0.49701l0 -2.32614 -0.35108 0zm0 2.01622c0,0.05522 -0.00453,0.10368 -0.01586,0.15102 -0.06456,0.26259 -0.27974,0.41699 -0.51532,0.41699 -0.38052,0 -0.57193,-0.3212 -0.57193,-0.71115 0,-0.426 0.21632,-0.74382 0.57987,-0.74382 0.26274,0 0.45528,0.18258 0.50738,0.40572 0.01133,0.04396 0.01586,0.10369 0.01586,0.14764l0 0.3336zm2.46936 -0.09129c0.00339,-0.03606 0.01132,-0.09129 0.01132,-0.16341 0,-0.35389 -0.16762,-0.90612 -0.79845,-0.90612 -0.56401,0 -0.90717,0.45644 -0.90717,1.03684 0,0.58154 0.35562,0.97036 0.95134,0.97036 0.30692,0 0.51871,-0.06311 0.64329,-0.11946l-0.06002 -0.2502c-0.13252,0.05635 -0.28427,0.09918 -0.5357,0.09918 -0.35109,0 -0.65575,-0.19385 -0.66367,-0.66719l1.35906 0zm-1.35453 -0.25132c0.02831,-0.24231 0.18347,-0.56802 0.53909,-0.56802 0.39526,0 0.49152,0.346 0.48813,0.56802l-1.02722 0z"/>
  </g>
 </g>
</svg>
