<?xml version="1.0" encoding="UTF-8"?>
<!DOCTYPE svg PUBLIC "-//W3C//DTD SVG 1.1//EN" "http://www.w3.org/Graphics/SVG/1.1/DTD/svg11.dtd">
<!-- Creator: CorelDRAW -->
<svg xmlns="http://www.w3.org/2000/svg" xml:space="preserve" width="100%" height="100%" version="1.1" shape-rendering="geometricPrecision" text-rendering="geometricPrecision" image-rendering="optimizeQuality" fill-rule="evenodd" clip-rule="evenodd"
viewBox="0 0 20.9999 7.89148"
 xmlns:xlink="http://www.w3.org/1999/xlink"
 xmlns:xodm="http://www.corel.com/coreldraw/odm/2003">
 <g id="Layer_x0020_1">
  <metadata id="CorelCorpID_0Corel-Layer"/>
  <g id="_1694417360400">
   <path fill="#FEFEFE" d="M1.93499 3.85204c0.6035,0 1.09275,-0.48692 1.09275,-1.08746 0,-0.60064 -0.48925,-1.08752 -1.09275,-1.08752 -0.60353,0 -1.09283,0.48688 -1.09283,1.08752 0,0.60054 0.4893,1.08746 1.09283,1.08746zm-1.05789 -2.4973c0.29989,-0.26543 0.65711,-0.48442 1.05789,-0.48442 1.06863,0 1.93499,0.83081 1.93499,1.89426 0,1.06342 -0.86636,1.92548 -1.93499,1.92548 -1.06868,0 -1.93499,-0.86206 -1.93499,-1.92548l0 -2.76458 0.8771 0 0 1.35474z"/>
   <path fill="#FEFEFE" d="M7.344 3.85204c0.60349,0 1.09279,-0.48692 1.09279,-1.08746 0,-0.60064 -0.4893,-1.08752 -1.09279,-1.08752 -0.60353,0 -1.0928,0.48688 -1.0928,1.08752 0,0.60054 0.48927,1.08746 1.0928,1.08746zm-1.93082 -1.08746c0,-1.06113 0.86448,-1.92148 1.93082,-1.92148 1.06638,0 1.93086,0.86035 1.93086,1.92148 0,1.06115 -0.86448,1.92126 -1.93086,1.92126 -1.06634,0 -1.93082,-0.86011 -1.93082,-1.92126z"/>
   <path fill="#FEFEFE" d="M3.83089 2.76457c0,-1.2816 0.74423,-1.92149 1.93089,-1.92149l0.08279 0 0 0.8413 -0.08279 -0.00733c-0.69911,0 -1.04866,0.48691 -1.04866,1.08752l0 1.8765 -0.8832 0 0.00097 -1.8765z"/>
   <path fill="#FEFEFE" d="M12.81741 1.22206c0.2684,-0.20242 0.48404,-0.37596 0.81902,-0.37596 0.83626,0 1.51414,0.74485 1.51414,1.66339l0.00131 2.13623 -0.83722 0 0 -2.13687c0,-0.45531 -0.33588,-0.82449 -0.75041,-0.82449 -0.41445,0 -0.74712,0.36918 -0.74712,0.82449l0 2.13687 -0.9234 0 0 -0.28367c-0.2418,0.20435 -0.55615,0.32455 -0.93545,0.32455 -0.96513,0 -1.69166,-0.77862 -1.69166,-1.73898l0 -2.93848 0.94748 0 0 0.90623 1.43509 0 0 0.82392 -1.43509 0 0 1.2907c0,0.46839 0.3573,0.84794 0.82794,0.84794 0.47061,0 0.85203,-0.37955 0.85203,-0.84794l0 -2.98421 0.92334 0 0 1.17628z"/>
   <path fill="#FEFEFE" d="M18.10856 2.35199c-0.1432,-0.43443 -0.55403,-0.74814 -1.03848,-0.74814 -0.48457,0 -0.89546,0.31388 -1.03874,0.7484l2.07722 -0.00026zm-2.11576 0.74255c0.08766,0.51325 0.53658,0.9039 1.07728,0.9039 0.45663,0 0.84793,-0.27881 1.01126,-0.67459l0.8486 -0.00094c-0.23955,0.79704 -0.97663,1.39135 -1.84883,1.39135 -1.06631,0 -1.93074,-0.88852 -1.93074,-1.9497 0,-1.06112 0.86443,-1.92148 1.93074,-1.92148 1.06638,0 1.93091,0.86036 1.93091,1.92148 0,0.11193 -0.00968,0.22198 -0.02811,0.32927l-2.99111 0.00071z"/>
   <path fill="#FEFEFE" d="M18.98639 2.76457c0,-1.2816 0.74408,-1.92149 1.93071,-1.92149l0.0828 0 0 0.8413 -0.0828 -0.00733c-0.69903,0 -1.04861,0.48691 -1.04861,1.08752l0 1.8765 -0.88311 0 0.00101 -1.8765z"/>
   <path fill="#FEFEFE" d="M4.78777 7.25736c-0.01715,-0.0943 -0.02287,-0.21218 -0.02287,-0.33249l0 -0.51949c0,-0.27804 -0.10375,-0.56745 -0.53021,-0.56745 -0.17565,0 -0.34312,0.04877 -0.45831,0.12276l0.058 0.16665c0.09722,-0.06341 0.23284,-0.10325 0.36273,-0.10325 0.28512,0 0.31698,0.2065 0.31698,0.32113l0 0.02845c-0.53919,-0.00244 -0.83902,0.1813 -0.83902,0.51624 0,0.2008 0.14461,0.39916 0.42727,0.39916 0.19853,0 0.34803,-0.09755 0.42646,-0.20649l0.00817 0 0.02042 0.17478 0.23038 0zm-0.26796 -0.46745c0,0.02602 -0.00572,0.05447 -0.0147,0.08049 -0.04003,0.11706 -0.15522,0.23169 -0.33659,0.23169 -0.1299,0 -0.23937,-0.07723 -0.23937,-0.24064 0,-0.26909 0.31371,-0.31787 0.59066,-0.31218l0 0.24064z"/>
   <path fill="#FEFEFE" d="M5.20545 5.53632l0 0.33331 -0.21568 0 0 0.19186 0.21568 0 0 0.75687c0,0.16341 0.02614,0.28698 0.09803,0.36178 0.06046,0.06829 0.15604,0.10568 0.27369,0.10568 0.09803,0 0.17564,-0.01382 0.22466,-0.03415l-0.01143 -0.18941c-0.03187,0.00894 -0.08089,0.01706 -0.14706,0.01706 -0.14134,0 -0.19035,-0.09755 -0.19035,-0.26908l0 -0.74875 0.36355 0 0 -0.19186 -0.36355 0 0 -0.39917 -0.24754 0.06586zm1.29466 0.33331l0.5155 1.2788c0.01144,0.03171 0.01715,0.05122 0.01715,0.06585 0,0.01463 -0.00816,0.03415 -0.0196,0.06016 -0.05801,0.12926 -0.1446,0.22682 -0.21323,0.28129 -0.07516,0.06341 -0.15849,0.10324 -0.22221,0.12357l0.06372 0.21218c0.06291,-0.01138 0.18709,-0.05447 0.31126,-0.1634 0.17238,-0.14959 0.29656,-0.39348 0.47793,-0.86907l0.3807 -0.98938 -0.26796 0 -0.27695 0.81378c-0.03432,0.10081 -0.06291,0.2065 -0.08905,0.29023l-0.00572 0c-0.02287,-0.08373 -0.058,-0.19267 -0.08987,-0.28454l-0.30554 -0.81947 -0.27613 0z"/>
   <path fill="#FEFEFE" d="M8.58997 5.83793c-0.38643,0 -0.69197,0.27234 -0.69197,0.73654 0,0.43901 0.29084,0.7146 0.66909,0.7146 0.33659,0 0.69442,-0.22357 0.69442,-0.73736 0,-0.42437 -0.27123,-0.71378 -0.67154,-0.71378zm-0.00573 0.18942c0.29983,0 0.41747,0.29754 0.41747,0.5333 0,0.31218 -0.18136,0.539 -0.42318,0.539 -0.24836,0 -0.42401,-0.22925 -0.42401,-0.53331 0,-0.26421 0.1299,-0.53899 0.42972,-0.53899zm2.14973 -0.15772l-0.25326 0 0 0.85118c0,0.04634 -0.00898,0.09186 -0.02287,0.12926 -0.04657,0.11219 -0.16421,0.22925 -0.33496,0.22925 -0.23038,0 -0.31126,-0.17722 -0.31126,-0.44143l0 -0.76826 -0.25326 0 0 0.81134c0,0.48778 0.26225,0.6081 0.4812,0.6081 0.24754,0 0.39458,-0.14633 0.46158,-0.25852l0.00571 0 0.0139 0.22681 0.22466 0c-0.00817,-0.10893 -0.01144,-0.23494 -0.01144,-0.37883l0 -1.0089zm0.40714 1.38773l0.25 0 0 -0.7398c0,-0.04308 0.00653,-0.08292 0.01225,-0.11787 0.03431,-0.18943 0.16094,-0.32356 0.33985,-0.32356 0.03432,0 0.06046,0.00243 0.0866,0.00813l0 -0.23821c-0.02369,-0.00569 -0.0433,-0.00812 -0.07271,-0.00812 -0.16993,0 -0.3227,0.11706 -0.3856,0.30404l-0.01144 0 -0.00899 -0.27234 -0.22221 0c0.00898,0.12845 0.01225,0.2691 0.01225,0.4325l0 0.95523zm1.42701 -0.06584c0.09803,0.05691 0.23855,0.0943 0.39132,0.0943 0.33169,0 0.52204,-0.17154 0.52204,-0.41542 0,-0.2065 -0.12417,-0.32682 -0.366,-0.41868 -0.18136,-0.06911 -0.26551,-0.12032 -0.26551,-0.23577 0,-0.10324 0.08415,-0.1886 0.23365,-0.1886 0.1299,0 0.23038,0.04552 0.28512,0.07967l0.06373 -0.18292c-0.07761,-0.04634 -0.20179,-0.08617 -0.34313,-0.08617 -0.29983,0 -0.48119,0.18373 -0.48119,0.40729 0,0.16585 0.11846,0.30405 0.36927,0.39267 0.18708,0.0691 0.25897,0.13495 0.25897,0.25527 0,0.11463 -0.08659,0.20649 -0.27123,0.20649 -0.12663,0 -0.25897,-0.05203 -0.33414,-0.10081l-0.0629 0.19268zm1.47818 0.06584l0 -1.38773 -0.25326 0 0 1.38773 0.25326 0zm-0.12663 -1.93567c-0.09231,0 -0.15849,0.06829 -0.15849,0.15772 0,0.08617 0.06291,0.15446 0.15277,0.15446 0.10049,0 0.16421,-0.06829 0.16095,-0.15446 0,-0.08943 -0.06046,-0.15772 -0.15523,-0.15772zm1.48472 -0.1008l0 0.82922 -0.00572 0c-0.06372,-0.11219 -0.20751,-0.21218 -0.42073,-0.21218 -0.34068,0 -0.62825,0.28372 -0.6258,0.74549 0,0.42192 0.25979,0.70565 0.59638,0.70565 0.22794,0 0.39786,-0.11787 0.47548,-0.27234l0.00571 0 0.01226 0.24063 0.22711 0c-0.00817,-0.0943 -0.01143,-0.23494 -0.01143,-0.35851l0 -1.67796 -0.25326 0zm0 1.45439c0,0.03984 -0.00327,0.07479 -0.01144,0.10894 -0.04657,0.18942 -0.20179,0.3008 -0.37172,0.3008 -0.2745,0 -0.41257,-0.2317 -0.41257,-0.51299 0,-0.3073 0.15604,-0.53655 0.41829,-0.53655 0.18953,0 0.32842,0.1317 0.366,0.29267 0.00817,0.0317 0.01144,0.07479 0.01144,0.10649l0 0.24064zm1.78127 -0.06585c0.00245,-0.02601 0.00817,-0.06585 0.00817,-0.11788 0,-0.25527 -0.12091,-0.65362 -0.57596,-0.65362 -0.40685,0 -0.65439,0.32925 -0.65439,0.74792 0,0.41949 0.25653,0.69997 0.68625,0.69997 0.2214,0 0.37417,-0.04552 0.46404,-0.08617l-0.0433 -0.18048c-0.09559,0.04064 -0.20506,0.07154 -0.38642,0.07154 -0.25327,0 -0.47303,-0.13983 -0.47874,-0.48128l0.98035 0zm-0.97709 -0.18129c0.02042,-0.17479 0.13235,-0.40974 0.38888,-0.40974 0.28512,0 0.35456,0.24959 0.35211,0.40974l-0.74099 0z"/>
  </g>
 </g>
</svg>
