<svg width="32" height="32" viewBox="0 0 32 32" fill="none" xmlns="http://www.w3.org/2000/svg">
<path d="M19.75 16C19.75 16.9946 19.3549 17.9484 18.6517 18.6517C17.9484 19.3549 16.9946 19.75 16 19.75C15.0054 19.75 14.0516 19.3549 13.3483 18.6517C12.6451 17.9484 12.25 16.9946 12.25 16C12.25 15.0054 12.6451 14.0516 13.3483 13.3483C14.0516 12.6451 15.0054 12.25 16 12.25C16.9946 12.25 17.9484 12.6451 18.6517 13.3483C19.3549 14.0516 19.75 15.0054 19.75 16Z" fill="#0066B2"/>
<path d="M4 16C4 16 8.5 7.75 16 7.75C23.5 7.75 28 16 28 16C28 16 23.5 24.25 16 24.25C8.5 24.25 4 16 4 16ZM16 21.25C17.3924 21.25 18.7277 20.6969 19.7123 19.7123C20.6969 18.7277 21.25 17.3924 21.25 16C21.25 14.6076 20.6969 13.2723 19.7123 12.2877C18.7277 11.3031 17.3924 10.75 16 10.75C14.6076 10.75 13.2723 11.3031 12.2877 12.2877C11.3031 13.2723 10.75 14.6076 10.75 16C10.75 17.3924 11.3031 18.7277 12.2877 19.7123C13.2723 20.6969 14.6076 21.25 16 21.25V21.25Z" fill="#0066B2"/>
</svg>
