<svg width="28" height="22" viewBox="0 0 28 22" fill="none" xmlns="http://www.w3.org/2000/svg">
<path d="M24.6665 0.333374H3.33317C1.8665 0.333374 0.679837 1.53337 0.679837 3.00004L0.666504 19C0.666504 20.4667 1.8665 21.6667 3.33317 21.6667H24.6665C26.1332 21.6667 27.3332 20.4667 27.3332 19V3.00004C27.3332 1.53337 26.1332 0.333374 24.6665 0.333374ZM24.1332 6.00004L14.7065 11.8934C14.2798 12.16 13.7198 12.16 13.2932 11.8934L3.8665 6.00004C3.73281 5.92499 3.61573 5.82359 3.52236 5.70198C3.42898 5.58037 3.36125 5.44108 3.32327 5.29253C3.28529 5.14399 3.27784 4.98929 3.30138 4.83778C3.32492 4.68628 3.37895 4.54113 3.46021 4.41111C3.54147 4.28109 3.64827 4.16891 3.77414 4.08137C3.90001 3.99382 4.04233 3.93272 4.1925 3.90177C4.34266 3.87082 4.49755 3.87066 4.64778 3.9013C4.79801 3.93195 4.94046 3.99275 5.0665 4.08004L13.9998 9.66671L22.9332 4.08004C23.0592 3.99275 23.2017 3.93195 23.3519 3.9013C23.5021 3.87066 23.657 3.87082 23.8072 3.90177C23.9573 3.93272 24.0997 3.99382 24.2255 4.08137C24.3514 4.16891 24.4582 4.28109 24.5395 4.41111C24.6207 4.54113 24.6748 4.68628 24.6983 4.83778C24.7218 4.98929 24.7144 5.14399 24.6764 5.29253C24.6384 5.44108 24.5707 5.58037 24.4773 5.70198C24.3839 5.82359 24.2669 5.92499 24.1332 6.00004Z" fill="#0066B2"/>
</svg>
