<svg width="176" height="53" viewBox="0 0 176 53" fill="none" xmlns="http://www.w3.org/2000/svg">
<path fill-rule="evenodd" clip-rule="evenodd" d="M16.6 7.6401C13.26 7.6401 10.29 9.4701 7.78999 11.6901V0.350098H0.48999V23.4901C0.48999 32.3901 7.69999 39.6001 16.6 39.6001C24.4 39.6001 30.9019 34.0622 32.39 26.7023V39.1901H39.74V23.4901C39.74 18.4858 42.6203 14.4317 48.3811 14.3904C46.6016 16.9781 45.56 20.1126 45.56 23.4901C45.56 32.3701 52.76 39.5701 61.64 39.5701C70.0107 39.5701 76.8886 33.1722 77.65 25.0003V25.0301C77.65 33.0601 83.7 39.5801 91.74 39.5801C94.9 39.5801 97.52 38.5701 99.53 36.8601V39.2301H107.22V21.3501C107.22 17.5401 109.99 14.4501 113.44 14.4501C116.89 14.4501 119.69 17.5401 119.69 21.3501V39.2301H126.66L126.652 24.0849C126.975 32.6908 134.046 39.7901 142.72 39.7901C149.99 39.7901 156.12 34.8201 158.12 28.1501L151.05 28.1601C149.69 31.4801 146.43 33.8101 142.63 33.8101C138.13 33.8101 134.39 30.5501 133.66 26.2501L158.57 26.2301C158.577 26.1892 158.583 26.1482 158.59 26.1073V39.1901H165.94V23.4901C165.94 18.4601 168.85 14.3901 174.67 14.3901L175.36 14.4501V7.4101H174.67C165.446 7.4101 159.429 12.082 158.671 21.4258C157.667 13.5109 150.907 7.3901 142.72 7.3901C134.04 7.3901 126.964 14.2701 126.651 22.874L126.65 21.3501C126.65 13.6601 121 7.4301 114.04 7.4301C111.383 7.4301 109.632 8.75468 107.536 10.3409L107.531 10.3453L107.488 10.3774C107.399 10.4445 107.31 10.5121 107.22 10.5801V0.740098H99.53V25.7101C99.53 29.6301 96.35 32.8101 92.43 32.8101C88.52 32.8101 85.54 29.6301 85.54 25.7101V14.9101H97.49V8.0101H85.54V0.430098H77.65V21.9799C76.8886 13.808 70.0107 7.4101 61.64 7.4101C56.6041 7.4101 52.1085 9.72567 49.16 13.3501V7.4101H48.47C39.3976 7.4101 33.4282 11.9296 32.5129 20.9686C31.3005 13.3115 24.6398 7.6401 16.6 7.6401ZM25.7 23.4901C25.7 28.5201 21.63 32.5901 16.6 32.5901C11.57 32.5901 7.49999 28.5201 7.49999 23.4901C7.49999 18.4601 11.57 14.3901 16.6 14.3901C21.63 14.3901 25.7 18.4601 25.7 23.4901ZM168.62 36.2001C168.62 35.2501 169.01 34.3901 169.63 33.7601C170.25 33.1401 171.11 32.7501 172.06 32.7501C173.01 32.7501 173.87 33.1401 174.5 33.7601C175.12 34.3801 175.51 35.2401 175.51 36.1901C175.51 37.1401 175.12 38.0001 174.5 38.6301C173.88 39.2501 173.02 39.6401 172.07 39.6401C171.12 39.6401 170.26 39.2501 169.63 38.6301C169 38.0201 168.62 37.1601 168.62 36.2001ZM169.23 36.2001C169.23 36.9901 169.55 37.7001 170.06 38.2101C170.57 38.7201 171.28 39.0401 172.06 39.0401C172.84 39.0401 173.55 38.7201 174.06 38.2101C174.57 37.7001 174.89 36.9901 174.89 36.2101C174.89 35.4301 174.57 34.7201 174.06 34.2101C173.55 33.7001 172.84 33.3801 172.06 33.3801C171.28 33.3801 170.57 33.7001 170.06 34.2101C169.55 34.7101 169.23 35.4201 169.23 36.2001ZM107.23 45.7801C107.1 45.6501 106.96 45.5401 106.82 45.4701C106.6 45.3601 106.37 45.3001 106.13 45.3101C105.48 45.3101 104.94 45.5801 104.49 46.1301C104.04 46.6701 103.82 47.3301 103.82 48.0901C103.82 48.7001 104 49.2401 104.37 49.7001C104.75 50.1601 105.23 50.3901 105.83 50.3901C106.17 50.3901 106.46 50.3101 106.72 50.1501C106.86 50.0601 107.03 49.9001 107.23 49.6901V50.3301L107.27 50.3801L108.1 50.0701C108.409 49.9606 108.627 49.8885 108.748 49.8483L108.749 49.8482L108.749 49.8481C108.816 49.826 108.853 49.8137 108.86 49.8101V49.6301C108.82 49.6401 108.78 49.6501 108.74 49.6501H108.62C108.38 49.6501 108.23 49.6001 108.17 49.5101C108.12 49.4201 108.09 49.2601 108.09 49.0301L108.1 44.7201C108.1 44.6151 108.102 44.5101 108.105 44.4051C108.107 44.3001 108.11 44.1951 108.11 44.0901C108.11 43.9838 108.113 43.8775 108.115 43.7725C108.118 43.6701 108.12 43.5689 108.12 43.4701L108.13 42.9201L108.1 42.9101C107.97 42.9601 107.88 42.9901 107.82 43.0101C107.747 43.0343 107.667 43.0586 107.58 43.085C107.523 43.1022 107.463 43.1204 107.4 43.1401C107.378 43.146 107.355 43.1522 107.332 43.1585C107.292 43.1699 107.25 43.1818 107.208 43.1938C107.117 43.22 107.023 43.2467 106.93 43.2701L106.5 43.3801V43.5701C106.547 43.5658 106.587 43.5615 106.62 43.558L106.62 43.558L106.62 43.5579C106.663 43.5533 106.693 43.5501 106.71 43.5501C106.74 43.5401 106.78 43.5401 106.82 43.5401C107 43.5401 107.11 43.5801 107.16 43.6601C107.21 43.7401 107.23 43.8901 107.23 44.1001V45.7801ZM107.22 49.1101C107.22 49.2501 107.14 49.4101 106.97 49.5701C106.8 49.7401 106.58 49.8201 106.31 49.8101C105.79 49.8101 105.39 49.5901 105.13 49.1501C104.87 48.7101 104.74 48.2101 104.74 47.6401C104.74 47.0601 104.86 46.5801 105.11 46.1901C105.35 45.8001 105.7 45.6001 106.14 45.6001C106.37 45.6001 106.61 45.6901 106.85 45.8801C107.1 46.0701 107.22 46.3901 107.22 46.8501V49.1101ZM101.6 43.0801C101.71 42.9701 101.84 42.9201 101.99 42.9201C102.14 42.9201 102.27 42.9701 102.38 43.0801C102.49 43.1901 102.54 43.3201 102.54 43.4701C102.54 43.6201 102.49 43.7501 102.38 43.8601C102.27 43.9701 102.15 44.0201 101.99 44.0201C101.84 44.0201 101.71 43.9701 101.6 43.8601C101.49 43.7501 101.44 43.6201 101.44 43.4701C101.44 43.3201 101.49 43.1901 101.6 43.0801ZM100.76 50.1401C101.14 50.1001 101.37 50.0401 101.47 49.9501C101.57 49.8501 101.62 49.6001 101.62 49.1901V46.6701C101.62 46.4401 101.6 46.2801 101.57 46.1901C101.52 46.0501 101.41 45.9701 101.24 45.9701C101.2 45.9701 101.16 45.9701 101.12 45.9801C101.11 45.9825 101.098 45.986 101.081 45.9905L101.081 45.9905L101.081 45.9906C101.028 46.005 100.937 46.0297 100.8 46.0601V45.9101L101.03 45.8401C101.65 45.6401 102.07 45.4901 102.32 45.3901C102.42 45.3501 102.48 45.3301 102.51 45.3301C102.52 45.3501 102.52 45.3801 102.52 45.4101V49.2001C102.52 49.6001 102.57 49.8501 102.66 49.9501C102.76 50.0501 102.98 50.1201 103.32 50.1501V50.3001H100.76V50.1401ZM65.15 47.5101L63.9 44.5301L62.67 47.5101H65.15ZM60.49 50.2901V50.0901C60.77 50.0601 60.98 49.9501 61.11 49.7701C61.25 49.5901 61.49 49.1001 61.83 48.3101L64.08 43.0101H64.29L66.98 49.1401C67.16 49.5501 67.3 49.8001 67.41 49.9001C67.52 49.9901 67.7 50.0601 67.95 50.1001V50.3001H65.2V50.1001C65.52 50.0701 65.72 50.0401 65.81 50.0001C65.9 49.9601 65.95 49.8601 65.95 49.7001C65.95 49.6501 65.93 49.5501 65.9 49.4201L65.8877 49.38C65.8515 49.2614 65.8129 49.1348 65.75 49.0001L65.3 47.9601H62.47L62.3808 48.1861L62.3786 48.1917C62.1527 48.7645 62.0132 49.1183 61.96 49.2601C61.91 49.4101 61.88 49.5401 61.88 49.6301C61.88 49.8101 61.95 49.9401 62.1 50.0101C62.19 50.0501 62.36 50.0801 62.62 50.1001V50.3001H60.49V50.2901ZM70.88 45.4301V45.8001H69.8L69.79 48.8401C69.79 49.1101 69.81 49.3101 69.86 49.4501C69.94 49.6901 70.11 49.8101 70.36 49.8101C70.49 49.8101 70.6 49.7801 70.69 49.7201C70.78 49.6601 70.89 49.5601 71.01 49.4401L71.15 49.5601L71.03 49.7201C70.85 49.9701 70.65 50.1401 70.45 50.2401C70.25 50.3401 70.05 50.3901 69.86 50.3901C69.44 50.3901 69.16 50.2101 69.02 49.8401C68.94 49.6401 68.9 49.3601 68.9 49.0101V45.8101H68.32C68.3 45.8001 68.29 45.7901 68.28 45.7801C68.27 45.7701 68.27 45.7601 68.27 45.7401C68.27 45.7001 68.28 45.6801 68.29 45.6601C68.31 45.6401 68.36 45.5901 68.44 45.5201C68.68 45.3201 68.86 45.1601 68.96 45.0301C69.07 44.9001 69.32 44.5701 69.72 44.0401C69.77 44.0401 69.79 44.0401 69.8 44.0501C69.81 44.0601 69.82 44.0801 69.82 44.1301V45.4301H70.88ZM76.22 45.4401H74V45.5801C74.18 45.6001 74.31 45.6601 74.4 45.7401C74.5 45.8201 74.6 45.9901 74.72 46.2501L76.41 49.9001C76.43 49.9301 76.44 49.9701 76.45 50.0201C76.46 50.0701 76.47 50.1101 76.47 50.1401C76.47 50.3001 76.36 50.6001 76.14 51.0601C75.92 51.5201 75.72 51.7501 75.52 51.7501C75.44 51.7501 75.31 51.7201 75.13 51.6501C74.95 51.5801 74.81 51.5501 74.72 51.5501C74.56 51.5501 74.43 51.5901 74.32 51.6801C74.22 51.7701 74.17 51.8901 74.17 52.0301C74.17 52.2401 74.26 52.4001 74.43 52.5001C74.6 52.6001 74.78 52.6501 74.98 52.6501C75.38 52.6501 75.72 52.4801 75.98 52.1401C76.25 51.8001 76.52 51.2501 76.81 50.4901L78.47 46.0901C78.52 45.9401 78.58 45.8301 78.65 45.7501C78.73 45.6701 78.84 45.6201 78.98 45.6001V45.4401H77.53V45.6101L77.69 45.6201C77.79 45.6201 77.87 45.6501 77.93 45.6901C77.99 45.7301 78.02 45.8001 78.02 45.8901C78.02 45.9086 78.0124 45.9425 78.0018 45.9892C77.9953 46.0181 77.9876 46.0519 77.98 46.0901C77.96 46.1901 77.94 46.2501 77.93 46.2801L76.94 49.0401L75.71 46.3001C75.679 46.2149 75.654 46.1536 75.635 46.1071L75.62 46.0701C75.6 46.0201 75.59 45.9701 75.59 45.9201C75.59 45.7901 75.67 45.7001 75.83 45.6501C75.91 45.6201 76.04 45.6001 76.22 45.6001V45.4401ZM80.18 46.0701C80.63 45.5801 81.2 45.3401 81.9 45.3401C82.6 45.3401 83.17 45.5701 83.63 46.0301C84.09 46.4901 84.32 47.1001 84.32 47.8601C84.32 48.5601 84.1 49.1701 83.66 49.6901C83.22 50.2101 82.64 50.4701 81.94 50.4701C81.27 50.4701 80.69 50.2201 80.22 49.7301C79.75 49.2301 79.52 48.6101 79.52 47.8601C79.52 47.1401 79.74 46.5501 80.18 46.0701ZM81.03 45.9301C80.68 46.2501 80.5 46.8001 80.5 47.5901C80.5 48.2201 80.64 48.8001 80.92 49.3401C81.21 49.8801 81.6 50.1501 82.1 50.1501C82.49 50.1501 82.8 49.9701 83.01 49.6101C83.22 49.2501 83.33 48.7701 83.33 48.1901C83.33 47.5801 83.19 47.0101 82.92 46.4701C82.65 45.9301 82.26 45.6601 81.74 45.6601C81.47 45.6501 81.23 45.7501 81.03 45.9301ZM86.32 48.7801V45.4001H84.77V45.5501C85.03 45.5801 85.19 45.6201 85.27 45.6801C85.39 45.7701 85.45 45.9601 85.45 46.2401V48.9801C85.45 49.4901 85.58 49.8501 85.86 50.0601C86.13 50.2801 86.41 50.3901 86.72 50.3901C87.05 50.3901 87.37 50.2801 87.67 50.0701C87.86 49.9401 88.08 49.7201 88.32 49.4401V50.2901V50.3401C88.32 50.3601 88.33 50.3701 88.35 50.3701C88.4389 50.3357 88.5188 50.3046 88.5896 50.277L88.5899 50.2768L88.5903 50.2767C88.766 50.2082 88.8859 50.1615 88.95 50.1401L89.0637 50.1038L89.064 50.1037C89.223 50.0528 89.3365 50.0164 89.41 50.0001C89.5 49.9701 89.65 49.9301 89.84 49.8801V49.7301C89.56 49.7401 89.38 49.7001 89.29 49.6101C89.2 49.5201 89.16 49.3501 89.16 49.1101V45.4001H87.45V45.5801C87.76 45.5901 87.97 45.6501 88.08 45.7301C88.19 45.8101 88.24 45.9901 88.24 46.2601V49.1501C88.1 49.3001 87.97 49.4201 87.84 49.5101C87.61 49.6701 87.38 49.7501 87.14 49.7501C86.79 49.7501 86.55 49.6201 86.42 49.3501C86.35 49.2101 86.32 49.0201 86.32 48.7801ZM90.09 50.1101C90.41 50.0801 90.63 50.0301 90.73 49.9401C90.84 49.8501 90.89 49.6701 90.89 49.3901V47.0101C90.89 46.6601 90.86 46.4101 90.79 46.2701C90.73 46.1201 90.61 46.0401 90.44 46.0401C90.4107 46.0401 90.3814 46.0455 90.3443 46.0522C90.3307 46.0547 90.3161 46.0574 90.3 46.0601L90.12 46.0901V45.9101C90.1714 45.8921 90.2234 45.8741 90.2759 45.856C90.4279 45.8035 90.5839 45.7495 90.74 45.6901C90.9084 45.6339 91.0383 45.5842 91.1244 45.5513L91.18 45.5301C91.36 45.4601 91.54 45.3901 91.72 45.3001C91.74 45.3001 91.76 45.3101 91.76 45.3301C91.77 45.3501 91.77 45.38 91.77 45.44V45.4401V46.3101C92 46.0001 92.21 45.7501 92.42 45.5801C92.63 45.4001 92.85 45.3201 93.07 45.3201C93.25 45.3201 93.39 45.3701 93.51 45.4801C93.62 45.5901 93.68 45.7201 93.68 45.8801C93.68 46.0201 93.64 46.1501 93.55 46.2401C93.47 46.3401 93.36 46.3901 93.23 46.3901C93.1 46.3901 92.96 46.3301 92.82 46.2101C92.69 46.0901 92.58 46.0301 92.5 46.0301C92.38 46.0301 92.23 46.1301 92.05 46.3301C91.87 46.5301 91.78 46.7301 91.78 46.9401V49.3101C91.78 49.6101 91.85 49.8201 91.99 49.9401C92.13 50.0601 92.36 50.1101 92.69 50.1001V50.2701H90.09V50.1101ZM97.08 48.6201H96.91V50.3201H97.05C97.06 50.2701 97.09 50.2401 97.12 50.2101C97.15 50.1801 97.19 50.1601 97.23 50.1601C97.27 50.1601 97.43 50.2001 97.7 50.2701C97.97 50.3401 98.21 50.3801 98.42 50.3801C98.92 50.3801 99.33 50.2401 99.64 49.9801C99.95 49.7101 100.11 49.3801 100.11 48.9601C100.11 48.4201 99.74 47.9501 98.99 47.5401L98.29 47.1701C97.8 46.9101 97.56 46.6201 97.56 46.3001C97.56 46.1001 97.63 45.9201 97.77 45.7701C97.91 45.6201 98.1 45.5401 98.35 45.5401C98.76 45.5401 99.07 45.7201 99.29 46.0701C99.41 46.2601 99.51 46.5301 99.58 46.8701H99.74L99.7 45.4001H99.57C99.55 45.4301 99.53 45.4601 99.5 45.4801C99.47 45.5001 99.42 45.5101 99.36 45.5101C99.33 45.5101 99.2 45.4701 98.98 45.4001C98.76 45.3301 98.56 45.2901 98.37 45.2901C97.94 45.2901 97.59 45.4201 97.31 45.6701C97.03 45.9201 96.89 46.2501 96.89 46.6401C96.89 46.9601 97 47.2301 97.2 47.4701C97.41 47.7001 97.73 47.9401 98.16 48.1701L98.75 48.5101C98.97 48.6401 99.12 48.7701 99.21 48.9101C99.3 49.0501 99.34 49.1901 99.34 49.3401C99.34 49.5701 99.27 49.7601 99.11 49.9101C98.96 50.0601 98.75 50.1301 98.49 50.1301C98.02 50.1301 97.66 49.9301 97.41 49.5401C97.27 49.3301 97.16 49.0201 97.08 48.6201ZM112.73 45.8501C113.1 46.1901 113.29 46.6801 113.29 47.3101H109.94C109.98 48.1301 110.16 48.7201 110.49 49.0901C110.82 49.4601 111.22 49.6501 111.68 49.6501C112.05 49.6501 112.36 49.5501 112.61 49.3601C112.86 49.1701 113.1 48.8901 113.31 48.5401L113.49 48.6001C113.35 49.0501 113.08 49.4601 112.68 49.8401C112.29 50.2201 111.8 50.4101 111.23 50.4101C110.57 50.4101 110.06 50.1601 109.69 49.6601C109.33 49.1601 109.15 48.5901 109.15 47.9301C109.15 47.2201 109.36 46.6101 109.78 46.1001C110.2 45.5901 110.74 45.3301 111.42 45.3301C111.93 45.3401 112.36 45.5101 112.73 45.8501ZM110.21 46.2501C110.1 46.4401 110.02 46.6801 109.97 46.9701H112.2C112.16 46.6201 112.09 46.3601 112 46.1801C111.83 45.8701 111.54 45.7201 111.13 45.7201C110.72 45.7201 110.42 45.9001 110.21 46.2501ZM114.47 49.8101C114.47 49.9801 114.52 50.1201 114.64 50.2401C114.75 50.3501 114.9 50.4101 115.07 50.4101C115.24 50.4101 115.38 50.3601 115.49 50.2401C115.6 50.1201 115.66 49.9801 115.66 49.8101C115.66 49.6501 115.61 49.5101 115.49 49.3901C115.38 49.2801 115.23 49.2201 115.07 49.2201C114.9 49.2201 114.76 49.2701 114.64 49.3901C114.53 49.5001 114.47 49.6401 114.47 49.8101ZM61.64 32.5901C66.67 32.5901 70.74 28.5201 70.74 23.4901C70.74 18.4601 66.67 14.3901 61.64 14.3901C56.61 14.3901 52.54 18.4601 52.54 23.4901C52.54 28.5201 56.62 32.5901 61.64 32.5901ZM142.63 13.7801C146.67 13.7801 150.09 16.4001 151.28 20.0401H133.98C135.17 16.4101 138.59 13.7801 142.63 13.7801ZM172.75 34.1301H170.51V38.1501H171.34V36.5601H172.31C172.6 36.5601 172.8 36.6901 172.81 36.9601C172.8 37.2501 172.8 37.5701 172.81 37.7701C172.82 37.9101 172.85 38.0301 172.92 38.1501H173.81V38.0001C173.73 37.9501 173.66 37.9001 173.66 37.6701C173.657 37.6041 173.653 37.5021 173.65 37.389C173.642 37.1594 173.633 36.884 173.62 36.7701C173.577 36.4493 173.375 36.3315 173.231 36.2471C173.209 36.2342 173.189 36.2221 173.17 36.2101C173.44 36.0601 173.62 35.9301 173.72 35.5801C173.82 35.2301 173.74 34.9501 173.68 34.7701C173.56 34.3301 173.15 34.1501 172.75 34.1301ZM172.47 35.8801H171.34V34.8301H172.46C172.83 34.8301 172.96 34.9901 172.96 35.2801C173.01 35.6801 172.66 35.8801 172.47 35.8801Z" fill="#0D2EA0"/>
</svg>
