<svg width="32" height="32" viewBox="0 0 32 32" fill="none" xmlns="http://www.w3.org/2000/svg">
<path d="M27.3 6H5.7C4.21095 6 3 7.0728 3 8.3904V22.1824C3 23.5 4 25 5.48905 25H9V30L18 25H27.3C29 25 30 23.5 30 22V8.3904C29.9979 7.75535 29.7124 7.147 29.2062 6.69885C28.7 6.2507 28.0144 5.99936 27.3 6Z" fill="#FF813A"/>
<path d="M9.08398 17.248C9.08398 17.127 9.04883 17.0176 8.97852 16.9199C8.9082 16.8223 8.77734 16.7324 8.58594 16.6504C8.39844 16.5645 8.12695 16.4863 7.77148 16.416C7.45117 16.3457 7.15234 16.2578 6.875 16.1523C6.60156 16.043 6.36328 15.9121 6.16016 15.7598C5.96094 15.6074 5.80469 15.4277 5.69141 15.2207C5.57812 15.0098 5.52148 14.7695 5.52148 14.5C5.52148 14.2344 5.57812 13.9844 5.69141 13.75C5.80859 13.5156 5.97461 13.3086 6.18945 13.1289C6.4082 12.9453 6.67383 12.8027 6.98633 12.7012C7.30273 12.5957 7.6582 12.543 8.05273 12.543C8.60352 12.543 9.07617 12.6309 9.4707 12.8066C9.86914 12.9824 10.1738 13.2246 10.3848 13.5332C10.5996 13.8379 10.707 14.1855 10.707 14.5762H9.01953C9.01953 14.4121 8.98438 14.2656 8.91406 14.1367C8.84766 14.0039 8.74219 13.9004 8.59766 13.8262C8.45703 13.748 8.27344 13.709 8.04688 13.709C7.85938 13.709 7.69727 13.7422 7.56055 13.8086C7.42383 13.8711 7.31836 13.957 7.24414 14.0664C7.17383 14.1719 7.13867 14.2891 7.13867 14.418C7.13867 14.5156 7.1582 14.6035 7.19727 14.6816C7.24023 14.7559 7.30859 14.8242 7.40234 14.8867C7.49609 14.9492 7.61719 15.0078 7.76562 15.0625C7.91797 15.1133 8.10547 15.1602 8.32812 15.2031C8.78516 15.2969 9.19336 15.4199 9.55273 15.5723C9.91211 15.7207 10.1973 15.9238 10.4082 16.1816C10.6191 16.4355 10.7246 16.7695 10.7246 17.1836C10.7246 17.4648 10.6621 17.7227 10.5371 17.957C10.4121 18.1914 10.2324 18.3965 9.99805 18.5723C9.76367 18.7441 9.48242 18.8789 9.1543 18.9766C8.83008 19.0703 8.46484 19.1172 8.05859 19.1172C7.46875 19.1172 6.96875 19.0117 6.55859 18.8008C6.15234 18.5898 5.84375 18.3223 5.63281 17.998C5.42578 17.6699 5.32227 17.334 5.32227 16.9902H6.92188C6.92969 17.2207 6.98828 17.4062 7.09766 17.5469C7.21094 17.6875 7.35352 17.7891 7.52539 17.8516C7.70117 17.9141 7.89062 17.9453 8.09375 17.9453C8.3125 17.9453 8.49414 17.916 8.63867 17.8574C8.7832 17.7949 8.89258 17.7129 8.9668 17.6113C9.04492 17.5059 9.08398 17.3848 9.08398 17.248ZM13.5078 13.9727V19H11.8145V12.6602H13.4023L13.5078 13.9727ZM13.2734 15.6074H12.8047C12.8047 15.166 12.8574 14.7598 12.9629 14.3887C13.0723 14.0137 13.2305 13.6895 13.4375 13.416C13.6484 13.1387 13.9082 12.9238 14.2168 12.7715C14.5254 12.6191 14.8828 12.543 15.2891 12.543C15.5703 12.543 15.8281 12.5859 16.0625 12.6719C16.2969 12.7539 16.498 12.8848 16.666 13.0645C16.8379 13.2402 16.9707 13.4707 17.0645 13.7559C17.1582 14.0371 17.2051 14.375 17.2051 14.7695V19H15.5176V14.957C15.5176 14.668 15.4785 14.4453 15.4004 14.2891C15.3223 14.1328 15.2109 14.0234 15.0664 13.9609C14.9258 13.8984 14.7559 13.8672 14.5566 13.8672C14.3379 13.8672 14.1465 13.9121 13.9824 14.002C13.8223 14.0918 13.6895 14.2168 13.584 14.377C13.4785 14.5332 13.4004 14.7168 13.3496 14.9277C13.2988 15.1387 13.2734 15.3652 13.2734 15.6074ZM17.0469 15.4141L16.4434 15.4902C16.4434 15.0762 16.4941 14.6914 16.5957 14.3359C16.7012 13.9805 16.8555 13.668 17.0586 13.3984C17.2656 13.1289 17.5215 12.9199 17.8262 12.7715C18.1309 12.6191 18.4824 12.543 18.8809 12.543C19.1855 12.543 19.4629 12.5879 19.7129 12.6777C19.9629 12.7637 20.1758 12.9023 20.3516 13.0938C20.5312 13.2812 20.668 13.5273 20.7617 13.832C20.8594 14.1367 20.9082 14.5098 20.9082 14.9512V19H19.2148V14.9512C19.2148 14.6582 19.1758 14.4355 19.0977 14.2832C19.0234 14.127 18.9141 14.0195 18.7695 13.9609C18.6289 13.8984 18.4609 13.8672 18.2656 13.8672C18.0625 13.8672 17.8848 13.9082 17.7324 13.9902C17.5801 14.0684 17.4531 14.1777 17.3516 14.3184C17.25 14.459 17.1738 14.623 17.123 14.8105C17.0723 14.9941 17.0469 15.1953 17.0469 15.4141ZM25.6426 17.248C25.6426 17.127 25.6074 17.0176 25.5371 16.9199C25.4668 16.8223 25.3359 16.7324 25.1445 16.6504C24.957 16.5645 24.6855 16.4863 24.3301 16.416C24.0098 16.3457 23.7109 16.2578 23.4336 16.1523C23.1602 16.043 22.9219 15.9121 22.7188 15.7598C22.5195 15.6074 22.3633 15.4277 22.25 15.2207C22.1367 15.0098 22.0801 14.7695 22.0801 14.5C22.0801 14.2344 22.1367 13.9844 22.25 13.75C22.3672 13.5156 22.5332 13.3086 22.748 13.1289C22.9668 12.9453 23.2324 12.8027 23.5449 12.7012C23.8613 12.5957 24.2168 12.543 24.6113 12.543C25.1621 12.543 25.6348 12.6309 26.0293 12.8066C26.4277 12.9824 26.7324 13.2246 26.9434 13.5332C27.1582 13.8379 27.2656 14.1855 27.2656 14.5762H25.5781C25.5781 14.4121 25.543 14.2656 25.4727 14.1367C25.4062 14.0039 25.3008 13.9004 25.1562 13.8262C25.0156 13.748 24.832 13.709 24.6055 13.709C24.418 13.709 24.2559 13.7422 24.1191 13.8086C23.9824 13.8711 23.877 13.957 23.8027 14.0664C23.7324 14.1719 23.6973 14.2891 23.6973 14.418C23.6973 14.5156 23.7168 14.6035 23.7559 14.6816C23.7988 14.7559 23.8672 14.8242 23.9609 14.8867C24.0547 14.9492 24.1758 15.0078 24.3242 15.0625C24.4766 15.1133 24.6641 15.1602 24.8867 15.2031C25.3438 15.2969 25.752 15.4199 26.1113 15.5723C26.4707 15.7207 26.7559 15.9238 26.9668 16.1816C27.1777 16.4355 27.2832 16.7695 27.2832 17.1836C27.2832 17.4648 27.2207 17.7227 27.0957 17.957C26.9707 18.1914 26.791 18.3965 26.5566 18.5723C26.3223 18.7441 26.041 18.8789 25.7129 18.9766C25.3887 19.0703 25.0234 19.1172 24.6172 19.1172C24.0273 19.1172 23.5273 19.0117 23.1172 18.8008C22.7109 18.5898 22.4023 18.3223 22.1914 17.998C21.9844 17.6699 21.8809 17.334 21.8809 16.9902H23.4805C23.4883 17.2207 23.5469 17.4062 23.6562 17.5469C23.7695 17.6875 23.9121 17.7891 24.084 17.8516C24.2598 17.9141 24.4492 17.9453 24.6523 17.9453C24.8711 17.9453 25.0527 17.916 25.1973 17.8574C25.3418 17.7949 25.4512 17.7129 25.5254 17.6113C25.6035 17.5059 25.6426 17.3848 25.6426 17.248Z" fill="white"/>
</svg>
